<?xml version="1.0" standalone="no"?>
<!DOCTYPE svg PUBLIC "-//W3C//DTD SVG 20010904//EN"
 "http://www.w3.org/TR/2001/REC-SVG-20010904/DTD/svg10.dtd">
<svg version="1.0" xmlns="http://www.w3.org/2000/svg"
 width="540.000000pt" height="540.000000pt" viewBox="0 0 540.000000 540.000000"
 preserveAspectRatio="xMidYMid meet">
<metadata>
Created by potrace 1.14, written by Peter Selinger 2001-2017
</metadata>
<g transform="translate(0.000000,540.000000) scale(0.100000,-0.100000)"
fill="#000000" stroke="none">
<path d="M3767 4883 c-2 -5 -12 -33 -22 -63 -9 -30 -25 -73 -35 -95 -10 -22
-28 -74 -40 -115 -12 -41 -28 -88 -36 -105 -17 -38 -168 -494 -184 -558 -7
-26 -17 -50 -21 -53 -5 -3 -9 -18 -9 -34 0 -16 -4 -31 -9 -34 -4 -3 -14 -27
-21 -53 -7 -27 -17 -52 -21 -58 -5 -5 -9 -20 -10 -35 0 -14 -22 -95 -48 -180
l-47 -155 -29 1 c-17 1 -115 7 -220 14 -460 31 -1049 -23 -1112 -102 -6 -7
-49 -134 -96 -283 -56 -179 -90 -271 -99 -273 -8 -2 -22 8 -31 21 -29 45 -119
137 -134 137 -8 0 -35 17 -59 38 -25 20 -50 36 -55 34 -6 -1 -30 4 -55 13 -25
8 -63 15 -85 15 l-40 0 6 -55 c5 -38 4 -60 -5 -70 -10 -12 -10 -27 0 -74 7
-33 9 -64 6 -70 -4 -6 5 -38 19 -70 15 -33 24 -64 20 -70 -3 -6 5 -26 19 -44
15 -19 26 -38 26 -43 0 -6 -27 -16 -59 -22 -183 -38 -353 -183 -467 -396 -110
-206 -106 -347 12 -512 30 -41 54 -81 54 -87 0 -7 -20 -25 -44 -40 -58 -36
-150 -136 -177 -190 -11 -23 -23 -62 -26 -87 -3 -25 -9 -49 -12 -55 -4 -5 -7
-55 -6 -110 1 -121 20 -185 75 -247 139 -159 516 -198 751 -78 33 16 65 30 71
30 6 0 42 14 79 31 l68 31 38 -29 c69 -54 157 -102 241 -133 151 -55 210 -60
688 -60 385 0 434 -2 434 -15 0 -13 7 -15 35 -9 28 5 35 3 35 -10 0 -20 26
-20 106 0 56 14 69 14 138 0 87 -19 155 -20 246 -6 185 30 284 97 321 218 7
23 16 42 21 42 4 0 41 -9 81 -21 105 -30 276 -37 369 -14 234 56 398 217 444
437 56 267 -112 601 -366 727 -87 42 -192 71 -267 71 -51 0 -54 12 -16 52 21
22 23 28 10 28 -25 0 -21 15 22 78 50 74 78 133 74 153 -2 8 5 36 15 60 17 39
18 57 12 129 -8 80 -17 120 -26 120 -3 0 -22 -9 -43 -19 -21 -11 -52 -19 -69
-19 -18 1 -48 -10 -72 -25 -22 -15 -49 -27 -60 -27 -12 0 -43 -20 -69 -45 -26
-25 -55 -45 -64 -45 -9 0 -24 -13 -34 -30 -9 -16 -22 -30 -28 -30 -6 0 -78
212 -160 471 -162 513 -154 495 -242 519 -26 7 -49 14 -51 16 -5 3 105 349
123 388 7 17 21 56 31 86 9 30 21 64 25 75 4 11 13 43 20 70 7 28 18 54 26 58
7 4 13 21 13 37 0 17 5 30 10 30 6 0 10 8 10 18 0 27 30 136 39 142 4 3 11 21
15 40 3 19 13 47 20 62 8 16 27 67 42 115 15 49 30 93 34 98 4 6 10 24 14 40
8 30 29 84 48 119 17 33 47 130 42 138 -3 4 -10 8 -16 8 -7 0 -30 9 -52 19
-51 23 -93 34 -99 24z"/>
</g>
</svg>
